<svg id="visual" viewBox="0 0 1920 1080" width="1920" height="1080" xmlns="http://www.w3.org/2000/svg" xmlns:xlink="http://www.w3.org/1999/xlink" version="1.1"><rect x="0" y="0" width="1920" height="1080" fill="#001220"></rect><path d="M0 841L45.7 839.8C91.3 838.7 182.7 836.3 274.2 839.5C365.7 842.7 457.3 851.3 548.8 859.2C640.3 867 731.7 874 823 879.8C914.3 885.7 1005.7 890.3 1097 893.5C1188.3 896.7 1279.7 898.3 1371.2 895.5C1462.7 892.7 1554.3 885.3 1645.8 873C1737.3 860.7 1828.7 843.3 1874.3 834.7L1920 826L1920 1081L1874.3 1081C1828.7 1081 1737.3 1081 1645.8 1081C1554.3 1081 1462.7 1081 1371.2 1081C1279.7 1081 1188.3 1081 1097 1081C1005.7 1081 914.3 1081 823 1081C731.7 1081 640.3 1081 548.8 1081C457.3 1081 365.7 1081 274.2 1081C182.7 1081 91.3 1081 45.7 1081L0 1081Z" fill="#002543"></path><path d="M0 858L45.7 867.3C91.3 876.7 182.7 895.3 274.2 909.7C365.7 924 457.3 934 548.8 933.8C640.3 933.7 731.7 923.3 823 919.8C914.3 916.3 1005.7 919.7 1097 910.2C1188.3 900.7 1279.7 878.3 1371.2 876.5C1462.7 874.7 1554.3 893.3 1645.8 893.7C1737.3 894 1828.7 876 1874.3 867L1920 858L1920 1081L1874.3 1081C1828.7 1081 1737.3 1081 1645.8 1081C1554.3 1081 1462.7 1081 1371.2 1081C1279.7 1081 1188.3 1081 1097 1081C1005.7 1081 914.3 1081 823 1081C731.7 1081 640.3 1081 548.8 1081C457.3 1081 365.7 1081 274.2 1081C182.7 1081 91.3 1081 45.7 1081L0 1081Z" fill="#09416e"></path><path d="M0 945L45.7 938.8C91.3 932.7 182.7 920.3 274.2 922.5C365.7 924.7 457.3 941.3 548.8 950.7C640.3 960 731.7 962 823 964.7C914.3 967.3 1005.7 970.7 1097 969C1188.3 967.3 1279.7 960.7 1371.2 957.8C1462.7 955 1554.3 956 1645.8 961C1737.3 966 1828.7 975 1874.3 979.5L1920 984L1920 1081L1874.3 1081C1828.7 1081 1737.3 1081 1645.8 1081C1554.3 1081 1462.7 1081 1371.2 1081C1279.7 1081 1188.3 1081 1097 1081C1005.7 1081 914.3 1081 823 1081C731.7 1081 640.3 1081 548.8 1081C457.3 1081 365.7 1081 274.2 1081C182.7 1081 91.3 1081 45.7 1081L0 1081Z" fill="#18609c"></path><path d="M0 1008L45.7 1006.8C91.3 1005.7 182.7 1003.3 274.2 995.5C365.7 987.7 457.3 974.3 548.8 973.3C640.3 972.3 731.7 983.7 823 987C914.3 990.3 1005.7 985.7 1097 988.5C1188.3 991.3 1279.7 1001.7 1371.2 1004C1462.7 1006.3 1554.3 1000.7 1645.8 994.7C1737.3 988.7 1828.7 982.3 1874.3 979.2L1920 976L1920 1081L1874.3 1081C1828.7 1081 1737.3 1081 1645.8 1081C1554.3 1081 1462.7 1081 1371.2 1081C1279.7 1081 1188.3 1081 1097 1081C1005.7 1081 914.3 1081 823 1081C731.7 1081 640.3 1081 548.8 1081C457.3 1081 365.7 1081 274.2 1081C182.7 1081 91.3 1081 45.7 1081L0 1081Z" fill="#2681cc"></path><path d="M0 1042L45.7 1039.5C91.3 1037 182.7 1032 274.2 1024.8C365.7 1017.7 457.3 1008.3 548.8 1004.3C640.3 1000.3 731.7 1001.7 823 1005.7C914.3 1009.7 1005.7 1016.3 1097 1021.2C1188.3 1026 1279.7 1029 1371.2 1031.3C1462.7 1033.7 1554.3 1035.3 1645.8 1030.7C1737.3 1026 1828.7 1015 1874.3 1009.5L1920 1004L1920 1081L1874.3 1081C1828.7 1081 1737.3 1081 1645.8 1081C1554.3 1081 1462.7 1081 1371.2 1081C1279.7 1081 1188.3 1081 1097 1081C1005.7 1081 914.3 1081 823 1081C731.7 1081 640.3 1081 548.8 1081C457.3 1081 365.7 1081 274.2 1081C182.7 1081 91.3 1081 45.7 1081L0 1081Z" fill="#34a3ff"></path></svg>