<svg id="visual" viewBox="0 0 1920 1080" width="1920" height="1080" xmlns="http://www.w3.org/2000/svg" xmlns:xlink="http://www.w3.org/1999/xlink" version="1.1"><rect x="0" y="0" width="1920" height="1080" fill="#001220"></rect><path d="M0 833L35.5 836.7C71 840.3 142 847.7 213.2 849.3C284.3 851 355.7 847 426.8 842.2C498 837.3 569 831.7 640 831.7C711 831.7 782 837.3 853.2 843.8C924.3 850.3 995.7 857.7 1066.8 867.2C1138 876.7 1209 888.3 1280 891.5C1351 894.7 1422 889.3 1493.2 881.2C1564.3 873 1635.7 862 1706.8 863.5C1778 865 1849 879 1884.5 886L1920 893L1920 1081L1884.5 1081C1849 1081 1778 1081 1706.8 1081C1635.7 1081 1564.3 1081 1493.2 1081C1422 1081 1351 1081 1280 1081C1209 1081 1138 1081 1066.8 1081C995.7 1081 924.3 1081 853.2 1081C782 1081 711 1081 640 1081C569 1081 498 1081 426.8 1081C355.7 1081 284.3 1081 213.2 1081C142 1081 71 1081 35.5 1081L0 1081Z" fill="#4ff7f3"></path><path d="M0 865L35.5 868.7C71 872.3 142 879.7 213.2 883.7C284.3 887.7 355.7 888.3 426.8 884.2C498 880 569 871 640 869.7C711 868.3 782 874.7 853.2 878.3C924.3 882 995.7 883 1066.8 885.3C1138 887.7 1209 891.3 1280 888.2C1351 885 1422 875 1493.2 874C1564.3 873 1635.7 881 1706.8 890.8C1778 900.7 1849 912.3 1884.5 918.2L1920 924L1920 1081L1884.5 1081C1849 1081 1778 1081 1706.8 1081C1635.7 1081 1564.3 1081 1493.2 1081C1422 1081 1351 1081 1280 1081C1209 1081 1138 1081 1066.8 1081C995.7 1081 924.3 1081 853.2 1081C782 1081 711 1081 640 1081C569 1081 498 1081 426.8 1081C355.7 1081 284.3 1081 213.2 1081C142 1081 71 1081 35.5 1081L0 1081Z" fill="#00e1fe"></path><path d="M0 944L35.5 938.2C71 932.3 142 920.7 213.2 913C284.3 905.3 355.7 901.7 426.8 909.5C498 917.3 569 936.7 640 942.3C711 948 782 940 853.2 940.7C924.3 941.3 995.7 950.7 1066.8 953.2C1138 955.7 1209 951.3 1280 943.2C1351 935 1422 923 1493.2 920.3C1564.3 917.7 1635.7 924.3 1706.8 932.2C1778 940 1849 949 1884.5 953.5L1920 958L1920 1081L1884.5 1081C1849 1081 1778 1081 1706.8 1081C1635.7 1081 1564.3 1081 1493.2 1081C1422 1081 1351 1081 1280 1081C1209 1081 1138 1081 1066.8 1081C995.7 1081 924.3 1081 853.2 1081C782 1081 711 1081 640 1081C569 1081 498 1081 426.8 1081C355.7 1081 284.3 1081 213.2 1081C142 1081 71 1081 35.5 1081L0 1081Z" fill="#00c8ff"></path><path d="M0 946L35.5 949.7C71 953.3 142 960.7 213.2 962.5C284.3 964.3 355.7 960.7 426.8 958.7C498 956.7 569 956.3 640 956.3C711 956.3 782 956.7 853.2 961.7C924.3 966.7 995.7 976.3 1066.8 978.7C1138 981 1209 976 1280 975.8C1351 975.7 1422 980.3 1493.2 982.3C1564.3 984.3 1635.7 983.7 1706.8 978.2C1778 972.7 1849 962.3 1884.5 957.2L1920 952L1920 1081L1884.5 1081C1849 1081 1778 1081 1706.8 1081C1635.7 1081 1564.3 1081 1493.2 1081C1422 1081 1351 1081 1280 1081C1209 1081 1138 1081 1066.8 1081C995.7 1081 924.3 1081 853.2 1081C782 1081 711 1081 640 1081C569 1081 498 1081 426.8 1081C355.7 1081 284.3 1081 213.2 1081C142 1081 71 1081 35.5 1081L0 1081Z" fill="#00adff"></path><path d="M0 1007L35.5 1005.3C71 1003.7 142 1000.3 213.2 1000.2C284.3 1000 355.7 1003 426.8 1000C498 997 569 988 640 985.2C711 982.3 782 985.7 853.2 992.7C924.3 999.7 995.7 1010.3 1066.8 1011.7C1138 1013 1209 1005 1280 997.7C1351 990.3 1422 983.7 1493.2 985.5C1564.3 987.3 1635.7 997.7 1706.8 999.8C1778 1002 1849 996 1884.5 993L1920 990L1920 1081L1884.5 1081C1849 1081 1778 1081 1706.8 1081C1635.7 1081 1564.3 1081 1493.2 1081C1422 1081 1351 1081 1280 1081C1209 1081 1138 1081 1066.8 1081C995.7 1081 924.3 1081 853.2 1081C782 1081 711 1081 640 1081C569 1081 498 1081 426.8 1081C355.7 1081 284.3 1081 213.2 1081C142 1081 71 1081 35.5 1081L0 1081Z" fill="#008dff"></path><path d="M0 1039L35.5 1036.3C71 1033.7 142 1028.3 213.2 1027.7C284.3 1027 355.7 1031 426.8 1030.3C498 1029.7 569 1024.3 640 1024.3C711 1024.3 782 1029.7 853.2 1031.2C924.3 1032.7 995.7 1030.3 1066.8 1030.5C1138 1030.7 1209 1033.3 1280 1032.8C1351 1032.3 1422 1028.7 1493.2 1026.7C1564.3 1024.7 1635.7 1024.3 1706.8 1022.7C1778 1021 1849 1018 1884.5 1016.5L1920 1015L1920 1081L1884.5 1081C1849 1081 1778 1081 1706.8 1081C1635.7 1081 1564.3 1081 1493.2 1081C1422 1081 1351 1081 1280 1081C1209 1081 1138 1081 1066.8 1081C995.7 1081 924.3 1081 853.2 1081C782 1081 711 1081 640 1081C569 1081 498 1081 426.8 1081C355.7 1081 284.3 1081 213.2 1081C142 1081 71 1081 35.5 1081L0 1081Z" fill="#0066ff"></path></svg>